<svg xmlns="http://www.w3.org/2000/svg" width="64" height="64" viewBox="0 0 64 64">
  <defs>
    <linearGradient id="bg" x1="0%" y1="0%" x2="100%" y2="100%">
      <stop offset="0%" stop-color="#1EC8FF"/>
      <stop offset="100%" stop-color="#8B2FFF"/>
    </linearGradient>
  </defs>
  <rect width="64" height="64" rx="14" fill="url(#bg)"/>
  <!-- Chat bubble -->
  <path d="M12 16 C12 12 15 9 19 9 L45 9 C49 9 52 12 52 16 L52 36 C52 40 49 43 45 43 L35 43 L28 52 L28 43 L19 43 C15 43 12 40 12 36 Z" fill="white" opacity="0.95"/>
  <!-- Sparkle -->
  <path d="M24 26 L26 21 L28 26 L33 28 L28 30 L26 35 L24 30 L19 28 Z" fill="#6B21FF" opacity="0.9"/>
  <!-- Letter I -->
  <text x="36" y="34" font-family="Georgia,serif" font-size="14" font-weight="bold" fill="#4B10E8" opacity="0.9">I</text>
</svg>
